HIERARCHY
ROOT ui
{
	 OFFSET 0 0 0
	 CHANNELS 3 XPosition YPosition Z Position
	 EndSite
	 {
	 OFFSET 0 -1 0
	 }
}
ROOT li
{
	 OFFSET 0 0 0
	 CHANNELS 3 XPosition YPosition Z Position
	 EndSite
	 {
	 OFFSET 0 -1 0
	 }
}
ROOT ul
{
	 OFFSET 0 0 0
	 CHANNELS 3 XPosition YPosition Z Position
	 EndSite
	 {
	 OFFSET 0 -1 0
	 }
}
ROOT ll
{
	 OFFSET 0 0 0
	 CHANNELS 3 XPosition YPosition Z Position
	 EndSite
	 {
	 OFFSET 0 -1 0
	 }
}
ROOT tt
{
	 OFFSET 0 0 0
	 CHANNELS 3 XPosition YPosition Z Position
	 EndSite
	 {
	 OFFSET 0 -1 0
	 }
}
ROOT tb
{
	 OFFSET 0 0 0
	 CHANNELS 3 XPosition YPosition Z Position
	 EndSite
	 {
	 OFFSET 0 -1 0
	 }
}
ROOT td
{
	 OFFSET 0 0 0
	 CHANNELS 3 XPosition YPosition Z Position
	 EndSite
	 {
	 OFFSET 0 -1 0
	 }
}
ROOT v
{
	 OFFSET 0 0 0
	 CHANNELS 3 XPosition YPosition Z Position
	 EndSite
	 {
	 OFFSET 0 -1 0
	 }
}
ROOT bn
{
	 OFFSET 0 0 0
	 CHANNELS 3 XPosition YPosition Z Position
	 EndSite
	 {
	 OFFSET 0 -1 0
	 }
}
MOTION
Frames: 19
Frame Time: 0.002
-7.348189949989319E-4	-2.3972000181674957E-4	0		0.40916378784179686	-2.292764892578125	0		-1.0590361328125	-0.04807745361328125	0		-0.8270872802734375	-2.290694091796875	0		1.2536771240234375	-0.5888488159179688	0		2.942815185546875	0.03831429290771484	0		4.52598388671875	0.1656780242919922	0		5.59158154296875	0.044315406799316406	0		-0.084527099609375	5.94702099609375	0		
0.003913762092590332	-0.005406356811523437	0		0.43282369995117187	-2.2983447265625	0		-1.0692303466796875	-0.04592474365234375	0		-0.8663028564453125	-2.289904541015625	0		1.2534404296875	-0.5888985595703125	0		2.9626787109375	0.04283728790283203	0		4.52574169921875	0.1656509704589844	0		5.5971640625	0.03616631698608398	0		-0.08480904388427735	5.9469619140625	0		
-0.0012202450037002563	-3.607029914855957E-4	0		0.40666876220703124	-2.294835693359375	0		-1.06358544921875	-0.05112574005126953	0		-0.8316475219726562	-2.295738525390625	0		1.259067626953125	-0.5950812377929687	0		2.967279541015625	0.03568997955322266	0		4.51449853515625	0.1658642578125	0		5.6026552734375	0.024018791198730467	0		-0.08509991455078125	5.94689892578125	0		
0.023509502410888672	-0.0019736310243606567	0		0.40848968505859373	-2.292942626953125	0		-1.0597628173828124	-0.048289562225341795	0		-0.8626655883789063	-2.28613623046875	0		1.2639822998046875	-0.5882476196289063	0		2.973341552734375	0.04951500701904297	0		4.518384765625	0.17174847412109376	0		5.5966328125	0.034130294799804686	0		-0.07017913818359375	5.95650146484375	0		
0.00543120288848877	0.005349346160888672	0		0.41031967163085936	-2.291052001953125	0		-1.071754638671875	-0.03710930252075195	0		-0.8259314575195312	-2.289022216796875	0		1.258884765625	-0.582196533203125	0		2.950804443359375	0.03595926284790039	0		4.5181474609375	0.1717234649658203	0		5.600548828125	0.04102668762207031	0		-0.07045111083984375	5.95743115234375	0		
-0.0019252760410308838	-5.672649741172791E-4	0		0.40807403564453126	-2.293074462890625	0		-1.0642890625	-0.051363353729248044	0		-0.8651245727539062	-2.28825	0		1.26353173828125	-0.5883619384765625	0		2.997828125	0.0468898696899414	0		4.528916015625	0.17146044921875	0		5.61514306640625	0.03268978881835938	0		-0.08500086975097657	5.94566845703125	0		
-0.0021433939933776856	-6.397609710693359E-4	0		0.431767333984375	-2.298665283203125	0		-1.0703958740234376	-0.04631820678710938	0		-0.841256591796875	-2.285857177734375	0		1.258168701171875	-0.5953089599609375	0		2.94553466796875	0.04398858261108399	0		4.513568359375	0.16576910400390624	0		5.60016845703125	0.04400687026977539	0		-0.08626526641845703	5.9466162109375	0		
0.002536717891693115	-0.005821193218231201	0		0.4056570129394531	-2.295166748046875	0		-1.076494384765625	-0.04127469635009766	0		-0.8695848999023438	-2.292327880859375	0		1.2520986328125	-0.58923779296875	0		2.956452880859375	0.049708885192871095	0		4.53330859375	0.1633136444091797	0		5.60156494140625	0.0259611759185791	0		-0.07133137512207031	5.9562119140625	0		
-0.002554079055786133	-7.868729829788208E-4	0		0.40752679443359374	-2.293279541015625	0		-1.0608515625	-0.04870874786376953	0		-0.8636288452148437	-2.28654443359375	0		1.2250419921875	-0.5827086181640625	0		2.97902734375	0.039171627044677734	0		4.51526220703125	0.17068594360351563	0		5.60547119140625	0.030866891860961913	0		-0.0696705322265625	5.9530947265625	0		
0.007468684196472168	0.008920209884643555	0		0.41251214599609376	-2.2864580078125	0		-1.0569576416015625	-0.044881778717041014	0		-0.8617518920898437	-2.2846708984375	0		1.2716702880859374	-0.5917897338867187	0		2.975162109375	0.054217662811279294	0		4.53221630859375	0.17729391479492188	0		5.60371484375	0.05089883804321289	0		-0.07088921356201172	5.95504296875	0		
1.3242700695991516E-4	0.0020044069290161134	0		0.43314990234375	-2.295979248046875	0		-1.077072265625	-0.04152787017822265	0		-0.8639561157226563	-2.2867060546875	0		1.2625587158203124	-0.5886509399414063	0		2.94474365234375	0.04383548736572265	0		4.51690185546875	0.17160008239746094	0		5.59516015625	0.03406638336181641	0		-0.08732980346679688	5.94632275390625	0		
-0.003110914945602417	-9.969239830970764E-4	0		0.40704071044921875	-2.29347705078125	0		-1.0772506103515624	-0.04160453033447266	0		-0.84003369140625	-2.2833046875	0		1.25723388671875	-0.595596923828125	0		2.97653515625	0.04209644317626953	0		4.52358935546875	0.16542041015625	0		5.59080810546875	0.026136093139648438	0		-0.08755956268310547	5.94625439453125	0		
-0.003284287929534912	-0.0010619230270385743	0		0.430765869140625	-2.29906103515625	0		-1.0855743408203125	-0.0484997673034668	0		-0.8663184814453125	-2.288806884765625	0		1.2601285400390625	-0.5927207641601563	0		2.9812080078125	0.03494125747680664	0		4.51654736328125	0.17153236389160156	0		5.58902685546875	0.04414241409301758	0		-0.20497882080078125	5.937740234375	0		
0.0014366209506988525	-0.006232490062713623	0		0.40671658325195315	-2.2936015625	0		-1.0775926513671874	-0.04174094009399414	0		-0.8644393310546875	-2.286915771484375	0		1.2599608154296875	-0.59278076171875	0		2.98149609375	0.05588010025024414	0		4.52535400390625	0.1702838592529297	0		5.60041943359375	0.023835472106933594	0		-0.07273507690429687	5.955796875	0		
0.003510498046875	0.00466077184677124	0		0.408591064453125	-2.291706787109375	0		-1.0619141845703124	-0.04914674758911133	0		-0.8625648193359375	-2.28501904296875	0		1.2319320068359374	-0.5862347412109375	0		2.94888134765625	0.03551710510253906	0		4.5203427734375	0.17732388305664062	0		5.60444921875	0.03267742538452149	0		-0.08712781524658203	5.9450439453125	0		
0.003348360061645508	0.00460293197631836	0		0.4063739318847656	-2.29372265625	0		-1.0779202880859375	-0.041852157592773435	0		-0.8278342895507812	-2.289833984375	0		1.26449755859375	-0.5990150146484375	0		2.98701513671875	0.0486128158569336	0		4.5208759765625	0.16322415161132814	0		5.5985283203125	0.04371863555908203	0		-0.0730228271484375	5.95567919921875	0		
-0.0039410490989685056	-0.001298027992248535	0		0.4300783386230469	-2.299302978515625	0		-1.086231689453125	-0.048721389770507814	0		-0.8649627685546875	-2.287075439453125	0		1.261550537109375	-0.589018310546875	0		2.937888671875	0.05059881591796875	0		4.515892578125	0.17123577880859375	0		5.59836865234375	0.04361353302001953	0		-0.08834416198730469	5.9459541015625	0		
-0.004101088047027588	-0.0013503530025482178	0		0.40396044921875	-2.295794677734375	0		-1.0823060302734375	-0.04484801483154297	0		-0.8390274658203125	-2.281685302734375	0		1.259296142578125	-0.5930422973632813	0		2.950595458984375	0.044226692199707034	0		4.5205595703125	0.1630183563232422	0		5.59399169921875	0.033578964233398435	0		-0.21989834594726562	5.92576513671875	0		
-0.0042618708610534664	-0.001400617003440857	0		0.4058049621582031	-2.293895751953125	0		-1.0666241455078125	-0.05222799682617187	0		-0.8633074340820313	-2.285197021484375	0		1.228198486328125	-0.5894375610351562	0		2.96834375	0.03973578262329101	0		4.52935546875	0.1606974639892578	0		5.61376123046875	0.030000534057617188	0		-0.07134182739257812	5.9524814453125	0		
